<mxfile host="app.diagrams.net" agent="Mozilla/5.0 (Windows NT 10.0; Win64; x64) AppleWebKit/537.36 (KHTML, like Gecko) Chrome/128.0.0.0 Safari/537.36 Edg/128.0.0.0" version="24.7.10">
  <diagram name="Page-1" id="bWDOqbOCuNiolvmMns6f">
    <mxGraphModel dx="1011" dy="681" grid="1" gridSize="10" guides="1" tooltips="1" connect="1" arrows="1" fold="1" page="1" pageScale="1" pageWidth="850" pageHeight="1100" math="0" shadow="0">
      <root>
        <mxCell id="0" />
        <mxCell id="1" parent="0" />
        <mxCell id="4PFju1cRLvIDXmecfq61-2" style="edgeStyle=orthogonalEdgeStyle;rounded=0;orthogonalLoop=1;jettySize=auto;html=1;" edge="1" parent="1" source="4PFju1cRLvIDXmecfq61-1">
          <mxGeometry relative="1" as="geometry">
            <mxPoint x="440" y="400" as="targetPoint" />
          </mxGeometry>
        </mxCell>
        <mxCell id="4PFju1cRLvIDXmecfq61-3" value="for i in range(len(arr)-1)" style="edgeLabel;html=1;align=center;verticalAlign=middle;resizable=0;points=[];" vertex="1" connectable="0" parent="4PFju1cRLvIDXmecfq61-2">
          <mxGeometry x="-0.0036" relative="1" as="geometry">
            <mxPoint y="-75" as="offset" />
          </mxGeometry>
        </mxCell>
        <mxCell id="4PFju1cRLvIDXmecfq61-4" value="for j in range(0, len(arr) - 1 - i)" style="edgeLabel;html=1;align=center;verticalAlign=middle;resizable=0;points=[];" vertex="1" connectable="0" parent="4PFju1cRLvIDXmecfq61-2">
          <mxGeometry x="0.0099" y="3" relative="1" as="geometry">
            <mxPoint as="offset" />
          </mxGeometry>
        </mxCell>
        <mxCell id="4PFju1cRLvIDXmecfq61-1" value="Start" style="ellipse;whiteSpace=wrap;html=1;aspect=fixed;" vertex="1" parent="1">
          <mxGeometry x="400" y="130" width="80" height="80" as="geometry" />
        </mxCell>
        <mxCell id="4PFju1cRLvIDXmecfq61-6" style="edgeStyle=orthogonalEdgeStyle;rounded=0;orthogonalLoop=1;jettySize=auto;html=1;" edge="1" parent="1">
          <mxGeometry relative="1" as="geometry">
            <mxPoint x="300" y="510" as="targetPoint" />
            <mxPoint x="425" y="440" as="sourcePoint" />
          </mxGeometry>
        </mxCell>
        <mxCell id="4PFju1cRLvIDXmecfq61-12" value="yes" style="edgeLabel;html=1;align=center;verticalAlign=middle;resizable=0;points=[];" vertex="1" connectable="0" parent="4PFju1cRLvIDXmecfq61-6">
          <mxGeometry x="-0.0847" y="1" relative="1" as="geometry">
            <mxPoint as="offset" />
          </mxGeometry>
        </mxCell>
        <mxCell id="4PFju1cRLvIDXmecfq61-13" style="edgeStyle=orthogonalEdgeStyle;rounded=0;orthogonalLoop=1;jettySize=auto;html=1;" edge="1" parent="1" source="4PFju1cRLvIDXmecfq61-5" target="4PFju1cRLvIDXmecfq61-14">
          <mxGeometry relative="1" as="geometry">
            <mxPoint x="530" y="650" as="targetPoint" />
          </mxGeometry>
        </mxCell>
        <mxCell id="4PFju1cRLvIDXmecfq61-16" value="No" style="edgeLabel;html=1;align=center;verticalAlign=middle;resizable=0;points=[];" vertex="1" connectable="0" parent="4PFju1cRLvIDXmecfq61-13">
          <mxGeometry x="-0.531" y="-2" relative="1" as="geometry">
            <mxPoint x="2" y="15" as="offset" />
          </mxGeometry>
        </mxCell>
        <mxCell id="4PFju1cRLvIDXmecfq61-5" value="if arr[j] &amp;gt; arr[j+1]" style="rhombus;whiteSpace=wrap;html=1;" vertex="1" parent="1">
          <mxGeometry x="370" y="400" width="140" height="80" as="geometry" />
        </mxCell>
        <mxCell id="4PFju1cRLvIDXmecfq61-15" style="edgeStyle=orthogonalEdgeStyle;rounded=0;orthogonalLoop=1;jettySize=auto;html=1;entryX=0.5;entryY=0;entryDx=0;entryDy=0;" edge="1" parent="1" source="4PFju1cRLvIDXmecfq61-10" target="4PFju1cRLvIDXmecfq61-14">
          <mxGeometry relative="1" as="geometry" />
        </mxCell>
        <mxCell id="4PFju1cRLvIDXmecfq61-10" value="arr[j], arr[j+1] = arr[j+1], arr[j]" style="rounded=0;whiteSpace=wrap;html=1;" vertex="1" parent="1">
          <mxGeometry x="210" y="510" width="180" height="60" as="geometry" />
        </mxCell>
        <mxCell id="4PFju1cRLvIDXmecfq61-19" style="edgeStyle=orthogonalEdgeStyle;rounded=0;orthogonalLoop=1;jettySize=auto;html=1;" edge="1" parent="1" source="4PFju1cRLvIDXmecfq61-14" target="4PFju1cRLvIDXmecfq61-20">
          <mxGeometry relative="1" as="geometry">
            <mxPoint x="440" y="800" as="targetPoint" />
          </mxGeometry>
        </mxCell>
        <mxCell id="4PFju1cRLvIDXmecfq61-14" value="return arr" style="rounded=0;whiteSpace=wrap;html=1;" vertex="1" parent="1">
          <mxGeometry x="380" y="670" width="120" height="60" as="geometry" />
        </mxCell>
        <mxCell id="4PFju1cRLvIDXmecfq61-20" value="End" style="ellipse;whiteSpace=wrap;html=1;aspect=fixed;" vertex="1" parent="1">
          <mxGeometry x="400" y="780" width="80" height="80" as="geometry" />
        </mxCell>
      </root>
    </mxGraphModel>
  </diagram>
</mxfile>
